<?xml version="1.0" standalone="no"?>
<svg xmlns:xlink="http://www.w3.org/1999/xlink" id="wave" style="transform:rotate(180deg); transition: 0.3s" viewBox="0 0 1440 490" version="1.1" xmlns="http://www.w3.org/2000/svg"><defs><linearGradient id="sw-gradient-0" x1="0" x2="0" y1="1" y2="0"><stop stop-color="rgba(17, 17, 17, 1)" offset="0%"/><stop stop-color="rgba(17, 17, 17, 1)" offset="100%"/></linearGradient></defs><path style="transform:translate(0, 0px); opacity:1" fill="url(#sw-gradient-0)" d="M0,147L120,138.8C240,131,480,114,720,155.2C960,196,1200,294,1440,302.2C1680,310,1920,229,2160,196C2400,163,2640,180,2880,228.7C3120,278,3360,359,3600,359.3C3840,359,4080,278,4320,212.3C4560,147,4800,98,5040,138.8C5280,180,5520,310,5760,359.3C6000,408,6240,376,6480,359.3C6720,343,6960,343,7200,334.8C7440,327,7680,310,7920,277.7C8160,245,8400,196,8640,187.8C8880,180,9120,212,9360,196C9600,180,9840,114,10080,138.8C10320,163,10560,278,10800,277.7C11040,278,11280,163,11520,155.2C11760,147,12000,245,12240,285.8C12480,327,12720,310,12960,294C13200,278,13440,261,13680,277.7C13920,294,14160,343,14400,302.2C14640,261,14880,131,15120,122.5C15360,114,15600,229,15840,261.3C16080,294,16320,245,16560,253.2C16800,261,17040,327,17160,359.3L17280,392L17280,490L17160,490C17040,490,16800,490,16560,490C16320,490,16080,490,15840,490C15600,490,15360,490,15120,490C14880,490,14640,490,14400,490C14160,490,13920,490,13680,490C13440,490,13200,490,12960,490C12720,490,12480,490,12240,490C12000,490,11760,490,11520,490C11280,490,11040,490,10800,490C10560,490,10320,490,10080,490C9840,490,9600,490,9360,490C9120,490,8880,490,8640,490C8400,490,8160,490,7920,490C7680,490,7440,490,7200,490C6960,490,6720,490,6480,490C6240,490,6000,490,5760,490C5520,490,5280,490,5040,490C4800,490,4560,490,4320,490C4080,490,3840,490,3600,490C3360,490,3120,490,2880,490C2640,490,2400,490,2160,490C1920,490,1680,490,1440,490C1200,490,960,490,720,490C480,490,240,490,120,490L0,490Z"/></svg>